<svg xmlns="http://www.w3.org/2000/svg" width="512" height="512" viewBox="0 0 512 512" role="img" aria-label="DoseCheck (maskable)">
  <defs>
    <linearGradient id="bg" x1="0" y1="0" x2="1" y2="1">
      <stop offset="0" stop-color="#0b72c9"/>
      <stop offset="1" stop-color="#0a4fa6"/>
    </linearGradient>
    <filter id="shadow" x="-20%" y="-20%" width="140%" height="140%">
      <feDropShadow dx="0" dy="18" stdDeviation="18" flood-color="#000" flood-opacity="0.35"/>
    </filter>
  </defs>

  <!-- Fundo full-bleed (maskable) -->
  <rect width="512" height="512" fill="url(#bg)"/>

  <!-- Área segura: símbolo central sem texto -->
  <g transform="translate(128 118)" filter="url(#shadow)">
    <g fill="#f4cf2a">
      <rect x="0" y="112" width="256" height="108" rx="32"/>
      <rect x="74" y="0" width="108" height="320" rx="32"/>
    </g>

    <path d="M52 196 L112 256 L220 126" fill="none" stroke="#0b2f66" stroke-width="34" stroke-linecap="round" stroke-linejoin="round" opacity="0.14"/>
    <path d="M52 188 L112 248 L220 118" fill="none" stroke="#1b355f" stroke-width="28" stroke-linecap="round" stroke-linejoin="round"/>

    <g transform="translate(150 10) rotate(-18 96 168)">
      <rect x="72" y="108" width="190" height="78" rx="28" fill="#ffffff"/>
      <rect x="50" y="124" width="42" height="46" rx="18" fill="#cfe3ff"/>
      <rect x="250" y="132" width="70" height="30" rx="14" fill="#cfe3ff"/>
      <path d="M320 148 L376 104" stroke="#ffffff" stroke-width="14" stroke-linecap="round"/>
      <path d="M320 148 L380 102" stroke="#0b2f66" stroke-width="6" stroke-linecap="round" opacity="0.35"/>

      <path d="M104 122 V172" stroke="#0b2f66" stroke-width="6" opacity="0.28"/>
      <path d="M136 122 V172" stroke="#0b2f66" stroke-width="6" opacity="0.28"/>
      <path d="M168 122 V172" stroke="#0b2f66" stroke-width="6" opacity="0.28"/>
      <path d="M200 122 V172" stroke="#0b2f66" stroke-width="6" opacity="0.28"/>
    </g>
  </g>
</svg>
